<?xml version="1.0" encoding="UTF-8"?>
<!DOCTYPE svg PUBLIC "-//W3C//DTD SVG 1.1//EN" "http://www.w3.org/Graphics/SVG/1.1/DTD/svg11.dtd">
<!-- Creator: CorelDRAW 2019 (64-Bit) -->
<svg xmlns="http://www.w3.org/2000/svg" xml:space="preserve" width="5.7443mm" height="7.9969mm" version="1.1" style="shape-rendering:geometricPrecision; text-rendering:geometricPrecision; image-rendering:optimizeQuality; fill-rule:evenodd; clip-rule:evenodd"
viewBox="0 0 46.42 64.63"
 xmlns:xlink="http://www.w3.org/1999/xlink">
 <defs>
  <style type="text/css">
   <![CDATA[
    .fil0 {fill:#C5C6C6;fill-rule:nonzero}
    .fil2 {fill:#727271;fill-rule:nonzero}
    .fil1 {fill:#2B2A29;fill-rule:nonzero}
    .fil3 {fill:#E31E24;fill-rule:nonzero}
    .fil4 {fill:#0072BA;fill-rule:nonzero}
   ]]>
  </style>
 </defs>
 <g id="Layer_x0020_1">
  <metadata id="CorelCorpID_0Corel-Layer"/>
  <path class="fil0" d="M30.55 22.97c0,-4.05 -3.29,-7.33 -7.33,-7.33 -4.05,0 -7.34,3.28 -7.34,7.33 0,2.75 1.52,5.14 3.75,6.4l0.15 -4.87c0,-1.99 1.62,-3.61 3.61,-3.61l0.2 0c1.57,0 2.84,1.27 2.84,2.84l0 5.81c2.43,-1.19 4.11,-3.69 4.11,-6.58z"/>
  <path class="fil1" d="M26.44 23.74c0,-1.57 -1.27,-2.84 -2.84,-2.84l-0.2 0c-1.99,0 -3.61,1.61 -3.61,3.61l-0.15 4.87 -0.34 10.72c-0.08,0.33 -0.12,7.78 -0.12,7.78 -0.63,-0.64 -1.33,-1.38 -1.96,-2.08 -1.47,-1.64 -4.17,-2.75 -5.97,-2.95 -0.95,-0.11 -1.67,0.02 -2.15,0.38 -0.15,0.12 -0.3,0.25 -0.45,0.39 -0.93,0.91 -1.63,2.39 -0.98,3.47 0.28,0.47 0.76,0.79 1.27,1.11 0.68,0.44 1.82,0.91 2.67,2.01 1.44,1.84 4.76,5.94 6.8,8.14 0.43,0.26 1.33,1.16 1.75,1.39 1.29,0.82 2.34,1.6 2.71,2.02 0.29,0.33 1.97,1.19 1.97,1.19 1.36,0.86 3.85,1.67 6.72,1.67 2.86,0 5.47,0.17 7.39,-1.52l0.1 0 0.05 -0.13c1.96,-1.79 3.17,-4.27 3.17,-7.02l0 -3.65 0 -9.47c0,-0.64 -0.14,-2.8 -1.95,-3.45 -0.87,-0.31 -1.69,-0.19 -2.4,0.11l-0.16 0.01 -0.05 0c-0.32,-1.18 -1.1,-1.95 -2.27,-2.15 -1.41,-0.24 -2.38,0.18 -2.97,0.6 -0.58,-1.25 -1.75,-1.91 -3.33,-1.77 -1.19,0.1 -2.07,0.68 -2.71,1.45l0 -8.08 0 -5.81z"/>
  <path class="fil1" d="M39.58 35.15l1.46 1.62c0.28,0.32 0.79,0.3 1.03,-0.05 2.81,-3.89 4.35,-8.58 4.35,-13.51 0,-12.8 -10.41,-23.21 -23.21,-23.21 -0.88,0 -1.77,0.05 -2.65,0.15 -10.68,1.19 -19.27,9.81 -20.42,20.5 -0.63,5.82 0.91,11.49 4.21,16.08 0.24,0.34 0.75,0.36 1.04,0.05l1.45 -1.62c0.21,-0.23 0.22,-0.57 0.05,-0.82 -2.33,-3.4 -3.55,-7.47 -3.43,-11.7 0.3,-10.27 8.56,-18.68 18.81,-19.16 11.34,-0.56 20.7,8.53 20.7,19.74 0,4.01 -1.22,7.87 -3.44,11.12 -0.17,0.26 -0.16,0.59 0.05,0.82z"/>
  <path class="fil2" d="M33.05 27.89l1.54 1.71c0.32,0.35 0.89,0.27 1.1,-0.15 0.97,-1.92 1.49,-4.04 1.49,-6.24 0,-6.58 -4.67,-12.32 -11.1,-13.67 -1.88,-0.4 -3.85,-0.4 -5.73,0 -6.43,1.35 -11.1,7.1 -11.1,13.67 0,2.21 0.51,4.32 1.48,6.24 0.21,0.42 0.78,0.5 1.1,0.15l1.54 -1.71c0.17,-0.19 0.21,-0.47 0.12,-0.7 -0.52,-1.26 -0.79,-2.61 -0.79,-3.97 0,-4.4 2.78,-8.37 6.92,-9.88 2.31,-0.84 4.9,-0.84 7.2,0 4.14,1.51 6.92,5.49 6.92,9.88 0,1.37 -0.27,2.72 -0.79,3.97 -0.1,0.24 -0.06,0.51 0.11,0.7z"/>
  <path class="fil0" d="M30.55 22.97c0,-4.05 -3.29,-7.33 -7.33,-7.33 -4.05,0 -7.34,3.28 -7.34,7.33 0,2.75 1.52,5.14 3.75,6.4l0.15 -4.87c0,-1.99 1.62,-3.61 3.61,-3.61l0.2 0c1.57,0 2.84,1.27 2.84,2.84l0 5.81c2.43,-1.19 4.11,-3.69 4.11,-6.58z"/>
  <path class="fil1" d="M26.44 23.74c0,-1.57 -1.27,-2.84 -2.84,-2.84l-0.2 0c-1.99,0 -3.61,1.61 -3.61,3.61l-0.15 4.87 -0.34 10.72c-0.08,0.33 -0.12,7.78 -0.12,7.78 -0.63,-0.64 -1.33,-1.38 -1.96,-2.08 -1.47,-1.64 -4.17,-2.75 -5.97,-2.95 -0.95,-0.11 -1.67,0.02 -2.15,0.38 -0.15,0.12 -0.3,0.25 -0.45,0.39 -0.93,0.91 -1.63,2.39 -0.98,3.47 0.28,0.47 0.76,0.79 1.27,1.11 0.68,0.44 1.82,0.91 2.67,2.01 1.44,1.84 4.76,5.94 6.8,8.14 0.43,0.26 1.33,1.16 1.75,1.39 1.29,0.82 2.34,1.6 2.71,2.02 0.29,0.33 1.97,1.19 1.97,1.19 1.36,0.86 3.85,1.67 6.72,1.67 2.86,0 5.47,0.17 7.39,-1.52l0.1 0 0.05 -0.13c1.96,-1.79 3.17,-4.27 3.17,-7.02l0 -3.65 0 -9.47c0,-0.64 -0.14,-2.8 -1.95,-3.45 -0.87,-0.31 -1.69,-0.19 -2.4,0.11l-0.16 0.01 -0.05 0c-0.32,-1.18 -1.1,-1.95 -2.27,-2.15 -1.41,-0.24 -2.38,0.18 -2.97,0.6 -0.58,-1.25 -1.75,-1.91 -3.33,-1.77 -1.19,0.1 -2.07,0.68 -2.71,1.45l0 -8.08 0 -5.81z"/>
  <path class="fil1" d="M39.58 35.15l1.46 1.62c0.28,0.32 0.79,0.3 1.03,-0.05 2.81,-3.89 4.35,-8.58 4.35,-13.51 0,-12.8 -10.41,-23.21 -23.21,-23.21 -0.88,0 -1.77,0.05 -2.65,0.15 -10.68,1.19 -19.27,9.81 -20.42,20.5 -0.63,5.82 0.91,11.49 4.21,16.08 0.24,0.34 0.75,0.36 1.04,0.05l1.45 -1.62c0.21,-0.23 0.22,-0.57 0.05,-0.82 -2.33,-3.4 -3.55,-7.47 -3.43,-11.7 0.3,-10.27 8.56,-18.68 18.81,-19.16 11.34,-0.56 20.7,8.53 20.7,19.74 0,4.01 -1.22,7.87 -3.44,11.12 -0.17,0.26 -0.16,0.59 0.05,0.82z"/>
  <path class="fil2" d="M33.05 27.89l1.54 1.71c0.32,0.35 0.89,0.27 1.1,-0.15 0.97,-1.92 1.49,-4.04 1.49,-6.24 0,-6.58 -4.67,-12.32 -11.1,-13.67 -1.88,-0.4 -3.85,-0.4 -5.73,0 -6.43,1.35 -11.1,7.1 -11.1,13.67 0,2.21 0.51,4.32 1.48,6.24 0.21,0.42 0.78,0.5 1.1,0.15l1.54 -1.71c0.17,-0.19 0.21,-0.47 0.12,-0.7 -0.52,-1.26 -0.79,-2.61 -0.79,-3.97 0,-4.4 2.78,-8.37 6.92,-9.88 2.31,-0.84 4.9,-0.84 7.2,0 4.14,1.51 6.92,5.49 6.92,9.88 0,1.37 -0.27,2.72 -0.79,3.97 -0.1,0.24 -0.06,0.51 0.11,0.7z"/>
  <path class="fil0" d="M30.55 22.97c0,-4.05 -3.29,-7.33 -7.33,-7.33 -4.05,0 -7.34,3.28 -7.34,7.33 0,2.75 1.52,5.14 3.75,6.4l0.15 -4.87c0,-1.99 1.62,-3.61 3.61,-3.61l0.2 0c1.57,0 2.84,1.27 2.84,2.84l0 5.81c2.43,-1.19 4.11,-3.69 4.11,-6.58z"/>
  <path class="fil1" d="M26.44 23.74c0,-1.57 -1.27,-2.84 -2.84,-2.84l-0.2 0c-1.99,0 -3.61,1.61 -3.61,3.61l-0.15 4.87 -0.34 10.72c-0.08,0.33 -0.12,7.78 -0.12,7.78 -0.63,-0.64 -1.33,-1.38 -1.96,-2.08 -1.47,-1.64 -4.17,-2.75 -5.97,-2.95 -0.95,-0.11 -1.67,0.02 -2.15,0.38 -0.15,0.12 -0.3,0.25 -0.45,0.39 -0.93,0.91 -1.63,2.39 -0.98,3.47 0.28,0.47 0.76,0.79 1.27,1.11 0.68,0.44 1.82,0.91 2.67,2.01 1.44,1.84 4.76,5.94 6.8,8.14 0.43,0.26 1.33,1.16 1.75,1.39 1.29,0.82 2.34,1.6 2.71,2.02 0.29,0.33 1.97,1.19 1.97,1.19 1.36,0.86 3.85,1.67 6.72,1.67 2.86,0 5.47,0.17 7.39,-1.52l0.1 0 0.05 -0.13c1.96,-1.79 3.17,-4.27 3.17,-7.02l0 -3.65 0 -9.47c0,-0.64 -0.14,-2.8 -1.95,-3.45 -0.87,-0.31 -1.69,-0.19 -2.4,0.11l-0.16 0.01 -0.05 0c-0.32,-1.18 -1.1,-1.95 -2.27,-2.15 -1.41,-0.24 -2.38,0.18 -2.97,0.6 -0.58,-1.25 -1.75,-1.91 -3.33,-1.77 -1.19,0.1 -2.07,0.68 -2.71,1.45l0 -8.08 0 -5.81z"/>
  <path class="fil1" d="M39.58 35.15l1.46 1.62c0.28,0.32 0.79,0.3 1.03,-0.05 2.81,-3.89 4.35,-8.58 4.35,-13.51 0,-12.8 -10.41,-23.21 -23.21,-23.21 -0.88,0 -1.77,0.05 -2.65,0.15 -10.68,1.19 -19.27,9.81 -20.42,20.5 -0.63,5.82 0.91,11.49 4.21,16.08 0.24,0.34 0.75,0.36 1.04,0.05l1.45 -1.62c0.21,-0.23 0.22,-0.57 0.05,-0.82 -2.33,-3.4 -3.55,-7.47 -3.43,-11.7 0.3,-10.27 8.56,-18.68 18.81,-19.16 11.34,-0.56 20.7,8.53 20.7,19.74 0,4.01 -1.22,7.87 -3.44,11.12 -0.17,0.26 -0.16,0.59 0.05,0.82z"/>
  <path class="fil2" d="M33.05 27.89l1.54 1.71c0.32,0.35 0.89,0.27 1.1,-0.15 0.97,-1.92 1.49,-4.04 1.49,-6.24 0,-6.58 -4.67,-12.32 -11.1,-13.67 -1.88,-0.4 -3.85,-0.4 -5.73,0 -6.43,1.35 -11.1,7.1 -11.1,13.67 0,2.21 0.51,4.32 1.48,6.24 0.21,0.42 0.78,0.5 1.1,0.15l1.54 -1.71c0.17,-0.19 0.21,-0.47 0.12,-0.7 -0.52,-1.26 -0.79,-2.61 -0.79,-3.97 0,-4.4 2.78,-8.37 6.92,-9.88 2.31,-0.84 4.9,-0.84 7.2,0 4.14,1.51 6.92,5.49 6.92,9.88 0,1.37 -0.27,2.72 -0.79,3.97 -0.1,0.24 -0.06,0.51 0.11,0.7z"/>
  <path class="fil3" d="M30.55 22.97c0,-4.05 -3.29,-7.33 -7.33,-7.33 -4.05,0 -7.34,3.28 -7.34,7.33 0,2.75 1.52,5.14 3.75,6.4l0.15 -4.87c0,-1.99 1.62,-3.61 3.61,-3.61l0.2 0c1.57,0 2.84,1.27 2.84,2.84l0 5.81c2.43,-1.19 4.11,-3.69 4.11,-6.58z"/>
  <path class="fil1" d="M26.44 23.74c0,-1.57 -1.27,-2.84 -2.84,-2.84l-0.2 0c-1.99,0 -3.61,1.61 -3.61,3.61l-0.15 4.87 -0.34 10.72c-0.08,0.33 -0.12,7.78 -0.12,7.78 -0.63,-0.64 -1.33,-1.38 -1.96,-2.08 -1.47,-1.64 -4.17,-2.75 -5.97,-2.95 -0.95,-0.11 -1.67,0.02 -2.15,0.38 -0.15,0.12 -0.3,0.25 -0.45,0.39 -0.93,0.91 -1.63,2.39 -0.98,3.47 0.28,0.47 0.76,0.79 1.27,1.11 0.68,0.44 1.82,0.91 2.67,2.01 1.44,1.84 4.76,5.94 6.8,8.14 0.43,0.26 1.33,1.16 1.75,1.39 1.29,0.82 2.34,1.6 2.71,2.02 0.29,0.33 1.97,1.19 1.97,1.19 1.36,0.86 3.85,1.67 6.72,1.67 2.86,0 5.47,0.17 7.39,-1.52l0.1 0 0.05 -0.13c1.96,-1.79 3.17,-4.27 3.17,-7.02l0 -3.65 0 -9.47c0,-0.64 -0.14,-2.8 -1.95,-3.45 -0.87,-0.31 -1.69,-0.19 -2.4,0.11l-0.16 0.01 -0.05 0c-0.32,-1.18 -1.1,-1.95 -2.27,-2.15 -1.41,-0.24 -2.38,0.18 -2.97,0.6 -0.58,-1.25 -1.75,-1.91 -3.33,-1.77 -1.19,0.1 -2.07,0.68 -2.71,1.45l0 -8.08 0 -5.81z"/>
  <path class="fil4" d="M39.58 35.15l1.46 1.62c0.28,0.32 0.79,0.3 1.03,-0.05 2.81,-3.89 4.35,-8.58 4.35,-13.51 0,-12.8 -10.41,-23.21 -23.21,-23.21 -0.88,0 -1.77,0.05 -2.65,0.15 -10.68,1.19 -19.27,9.81 -20.42,20.5 -0.63,5.82 0.91,11.49 4.21,16.08 0.24,0.34 0.75,0.36 1.04,0.05l1.45 -1.62c0.21,-0.23 0.22,-0.57 0.05,-0.82 -2.33,-3.4 -3.55,-7.47 -3.43,-11.7 0.3,-10.27 8.56,-18.68 18.81,-19.16 11.34,-0.56 20.7,8.53 20.7,19.74 0,4.01 -1.22,7.87 -3.44,11.12 -0.17,0.26 -0.16,0.59 0.05,0.82z"/>
  <path class="fil3" d="M33.05 27.89l1.54 1.71c0.32,0.35 0.89,0.27 1.1,-0.15 0.97,-1.92 1.49,-4.04 1.49,-6.24 0,-6.58 -4.67,-12.32 -11.1,-13.67 -1.88,-0.4 -3.85,-0.4 -5.73,0 -6.43,1.35 -11.1,7.1 -11.1,13.67 0,2.21 0.51,4.32 1.48,6.24 0.21,0.42 0.78,0.5 1.1,0.15l1.54 -1.71c0.17,-0.19 0.21,-0.47 0.12,-0.7 -0.52,-1.26 -0.79,-2.61 -0.79,-3.97 0,-4.4 2.78,-8.37 6.92,-9.88 2.31,-0.84 4.9,-0.84 7.2,0 4.14,1.51 6.92,5.49 6.92,9.88 0,1.37 -0.27,2.72 -0.79,3.97 -0.1,0.24 -0.06,0.51 0.11,0.7z"/>
 </g>
</svg>
