<?xml version="1.0" encoding="UTF-8"?>
<!DOCTYPE svg PUBLIC "-//W3C//DTD SVG 1.1//EN" "http://www.w3.org/Graphics/SVG/1.1/DTD/svg11.dtd">
<!-- Creator: CorelDRAW 2019 (64-Bit) -->
<svg xmlns="http://www.w3.org/2000/svg" xml:space="preserve" width="85.6348mm" height="8.0454mm" version="1.1" style="shape-rendering:geometricPrecision; text-rendering:geometricPrecision; image-rendering:optimizeQuality; fill-rule:evenodd; clip-rule:evenodd"
viewBox="0 0 8563.48 804.54"
 xmlns:xlink="http://www.w3.org/1999/xlink">
 <defs>
  <style type="text/css">
   <![CDATA[
    .str0 {stroke:#2B2A29;stroke-width:17.64;stroke-miterlimit:10}
    .fil1 {fill:#E41D2D}
    .fil0 {fill:#2B2A29;fill-rule:nonzero}
   ]]>
  </style>
 </defs>
 <g id="Layer_x0020_1">
  <metadata id="CorelCorpID_0Corel-Layer"/>
  <g id="_3116307171744">
   <polygon class="fil0 str0" points="3837.54,795.72 3825.2,795.72 3825.2,8.82 3837.54,8.82 "/>
   <polygon class="fil0" points="18.07,596.81 99.62,596.81 99.62,763.92 129.13,763.92 129.13,596.81 209.7,596.81 209.7,574.59 18.07,574.59 "/>
   <path class="fil0" d="M335.26 615.69c-25.93,0 -47.24,10.36 -60.06,29.19l0 -70.28 -28.55 0 0 189.42 28.55 0 0 -67.41c0,-45.2 28.87,-61.29 55.87,-61.29 28.55,0 43.64,16.6 43.64,47.95l0 80.75 28.45 0 0 -82.07c0,-42.72 -24.12,-66.26 -67.9,-66.26z"/>
   <path class="fil0" d="M1044.15 688.5c0,16.75 -5.21,31.07 -15,41.39 -10.38,10.93 -25.55,16.71 -43.83,16.71 -18.17,0 -33.19,-5.78 -43.5,-16.71 -9.73,-10.32 -14.8,-24.64 -14.8,-41.39 0,-36.36 21.76,-58.08 58.3,-58.08 37.4,0 58.83,21.15 58.83,58.08zm7.67 -57.97c-15.16,-13.68 -37.52,-20.65 -66.5,-20.65 -27.59,0 -50.34,7.47 -65.68,21.67 -14.87,13.64 -22.75,33.36 -22.75,56.95 0,25.04 7.68,44.57 22.75,58.12 15.19,13.64 37.27,20.56 65.68,20.56 57.31,0 88.86,-27.96 88.86,-78.68 0,-25.03 -7.51,-44.52 -22.36,-57.97z"/>
   <path class="fil0" d="M1802.82 646.59c10.21,-10.57 25.33,-16.17 43.68,-16.17 37.5,0 59.04,21.15 59.04,58.08 0,16.62 -5.26,30.94 -15.23,41.3 -10.5,11 -25.64,16.8 -43.81,16.8 -35.69,0 -58.78,-22.81 -58.78,-58.1 0,-17.26 5.21,-31.76 15.1,-41.91zm110.21 -16.05c-15.12,-13.69 -37.52,-20.66 -66.53,-20.66 -27.61,0 -50.38,7.47 -65.84,21.66 -15.05,13.7 -22.97,33.42 -22.97,56.96 0,50.7 31.53,78.66 88.81,78.66 28.46,0 50.64,-6.9 65.91,-20.54 15.19,-13.54 22.89,-33.12 22.89,-58.12 0,-25.02 -7.47,-44.53 -22.27,-57.96z"/>
   <path class="fil0" d="M2497.29 611.74c-28.54,2.22 -43.71,20.25 -53.34,37.79l0 -36.5 -25.52 0 0 151.06 28.96 0 0 -79.45c0.73,-14.67 6.24,-26.62 16.44,-35.54 10.18,-8.97 23.15,-13.58 38.63,-13.58l14.03 -0.25 0 -23.51 -0.36 -0.02c-4.46,-0.44 -15.67,-0.26 -18.84,0z"/>
   <path class="fil0" d="M845.35 630.98c0,26.77 -15.14,38.75 -48.99,38.75l-58.2 0 0 -73.68 56.2 0c34.76,0 50.99,11.12 50.99,34.93zm-50.45 -56.53c-0.23,0 -86.13,0.25 -86.13,0.25l0 189.28 29.39 0 0 -72.76 60.73 0c25.54,0 45.37,-5.76 58.87,-17.03 12.41,-10.45 18.96,-25.46 18.96,-43.44 0,-14.98 -4.62,-27.2 -13.72,-36.31 -13.3,-13.32 -36.23,-19.99 -68.1,-19.99z"/>
   <path class="fil0" d="M2210.34 596.31l47.7 0c34.35,0 56.62,5.96 69.96,18.5 11.93,11.27 17.28,28.17 17.28,54.6 0,49.24 -27.14,73.13 -82.94,73.13l-52 0 0 -146.23zm138.95 2.87c-18.42,-16.38 -46.81,-24.62 -84.4,-24.62l-84.44 0 0 189.6 85.53 0c35.02,0 62.38,-8.35 81.38,-24.49 19.03,-16.53 28.66,-40.09 28.66,-70.45 0,-30.82 -8.99,-54.41 -26.73,-70.04z"/>
   <path class="fil0" d="M2852.43 696.93c0,33.29 -17.24,50.07 -52.8,50.07 -24.13,0 -37.38,-10.31 -37.38,-27.99 0,-6.12 2.03,-11.33 6.12,-15.43 11.66,-11.79 37.07,-13.14 56.01,-13.14 2.96,0 5.81,0.05 8.43,0.08 2.04,0.01 3.93,0.04 5.6,0.04l14.02 0 0 6.37zm27.82 35l0 -62.66c0,-15.64 -0.43,-28.62 -15.7,-41.68 -13.07,-11.21 -35.27,-17.47 -57.66,-17.47 -22.76,0 -61.85,6.56 -69.2,37.82l31.16 0c4.65,-10.04 19.08,-17.58 38.04,-17.58 26.99,0 45.54,11.95 45.54,35.13l0 5.06 -15.32 0c-2.66,0 -5.67,-0.05 -8.77,-0.05 -26.38,0 -66.23,1.05 -85.37,20.63 -7.17,7.33 -10.84,16.71 -10.84,27.88 0,28.19 24.27,48.05 60.35,48.05 28.24,0 45.56,-4.74 61,-25.41 0,0 0.18,12.95 1.48,22.44l27.37 0c0,0 -2.08,-16.57 -2.08,-32.16z"/>
   <path class="fil0" d="M3111.12 610.15c-31.47,0 -47.36,19.95 -54.91,36.36 -8.54,-21.92 -27.9,-36.36 -50.8,-36.36 -23.89,0 -41.85,11.52 -52.71,31.63 0,0 -0.13,-13.91 -1.22,-28.78l-26.84 0c0.83,11.28 0.95,25.02 0.95,36.88l0 114.23 28.41 0 0 -72.63c0,-41.42 22.77,-60.22 45.27,-60.22 23.51,0 34.48,17.78 34.48,55.96l0 76.89 28.37 0 0 -72.63c0,-22.04 5.81,-38.43 17.24,-48.99 11.13,-10.32 23.67,-11.23 27.2,-11.23 13.69,0 22.68,4.55 28.26,14.3 5.17,8.92 7.49,22.52 7.49,43.05l0 75.5 28.44 0 0 -86.68c0,-22.67 -5.74,-39.95 -17.01,-51.23 -10.09,-10.1 -24.45,-16.05 -42.62,-16.05z"/>
   <path class="fil0" d="M3316.48 681.88l-47.38 -9.76c-22.43,-4.51 -32.33,-10.57 -32.33,-20.72 0,-13.8 17.73,-20.97 43.6,-20.97 21.24,0 36.42,5.67 41.25,17.46l30.92 0c-2.16,-13.16 -9.61,-22.77 -22.58,-29.16 -14.81,-7.29 -35.75,-8.81 -48.75,-8.81 -20.04,0 -37.02,3.71 -49.32,10.74 -14.08,8.06 -23.53,19.92 -23.53,35.2 0,20.01 14.68,32.01 41.22,37.77l44.86 9.59c15.43,3.25 31.35,7.64 31.35,20.71 0,15.69 -16.42,23.29 -46.24,23.29 -24.66,0 -39.57,-7.1 -44.53,-21.87l-31.15 0c5.94,34.48 42.05,41.86 72.26,41.86 53.71,0 79.85,-15.44 79.85,-47.17 0,-21.29 -11.46,-32.35 -39.5,-38.16z"/>
   <path class="fil0" d="M2042.36 571.65c-15.49,0 -29.01,1.63 -40.35,10.95 -4.82,3.96 -9.59,10.17 -12.48,18.94 -2.68,8.06 -3.37,16.49 -3.62,30.8l-30.96 0 0 20.49 30.96 0 -0.04 111.27 28.98 0 0 -111.27 52.19 0 0 -20.49 -52.19 0c0,-21.06 0.96,-27.79 7.13,-33.69 4.14,-3.94 10.33,-6.62 24.15,-6.62 8.31,0 17.24,0.88 22.61,2.52l0 -20.81c-7.42,-1.23 -16.05,-2.09 -26.38,-2.09z"/>
   <path class="fil0" d="M1302.95 680c-5.65,18.26 -11.77,38.64 -19.24,64.18l-0.13 0c-6.13,-20.37 -12.6,-41.5 -19.24,-62.76l-20.02 -61.31 -0.09 -0.26 -43.94 0 -20.1 61.57c-6.74,20.51 -13.23,41.62 -19.24,62.76l-0.14 0c-7.49,-25.58 -13.59,-45.97 -19.21,-64.18l-18.62 -59.87 -0.09 -0.28 -31.45 0 46.7 143.98 0.07 0.25 43.98 0 20.79 -62.38c1.66,-5.32 3.33,-10.63 4.98,-15.91 4.74,-14.98 9.61,-30.51 14.23,-45.99l0.14 0c4.83,16.16 9.95,32.37 14.89,48.04 1.46,4.59 2.92,9.24 4.37,13.86l20.68 62.13 0.06 0.25 43.99 0 46.65 -143.75 0.14 -0.48 -31.47 0 -18.69 60.15z"/>
   <path class="fil0" d="M1651.37 611.74c-28.55,2.22 -43.71,20.25 -53.34,37.79l0 -36.5 -25.52 0 0 151.06 28.95 0 0 -79.45c0.73,-14.67 6.26,-26.62 16.44,-35.54 10.18,-8.97 23.16,-13.58 38.64,-13.58l14.02 -0.25 0 -23.51 -0.36 -0.02c-4.47,-0.44 -15.67,-0.26 -18.83,0z"/>
   <path class="fil0" d="M1402.39 676.27c0.16,-2.69 0.93,-5.74 1.62,-8.4 6.17,-24.27 23.83,-37.7 50.72,-37.7 34.63,0 47.65,24.2 48.22,46.1l-100.56 0zm110.42 -45.44c-13.3,-13.25 -32.65,-20.93 -57.42,-20.93 -51.89,0 -81.64,30.28 -81.64,81.44 0,22.67 7.33,41.55 21.22,54.59 14.06,13.28 35.24,21.25 60.19,21.25 18.97,0 36.02,-4.78 48.77,-12.05 12.18,-6.94 22.29,-16.71 26.23,-29.78l-31.51 0c-7.7,14.07 -24.57,21.61 -45.12,21.61 -20.97,0 -36.73,-9.52 -45.22,-26.53 -3.42,-6.8 -5.92,-15.34 -6.58,-23.94l131.07 0 0 -8.77c0,-24.52 -6.72,-43.69 -19.99,-56.89z"/>
   <path class="fil0" d="M2568.63 676.27c0.16,-2.69 0.94,-5.74 1.62,-8.4 6.17,-24.27 23.86,-37.7 50.75,-37.7 34.63,0 47.65,24.2 48.19,46.1l-100.56 0zm110.42 -45.44c-13.29,-13.25 -32.64,-20.93 -57.41,-20.93 -51.89,0 -81.65,30.28 -81.65,81.44 0,22.67 7.33,41.55 21.22,54.59 14.1,13.28 35.24,21.25 60.19,21.25 18.97,0 36.05,-4.78 48.77,-12.05 12.18,-6.94 22.3,-16.71 26.23,-29.78l-31.5 0c-7.7,14.07 -24.57,21.61 -45.14,21.61 -20.96,0 -36.72,-9.52 -45.21,-26.53 -3.41,-6.8 -5.92,-15.34 -6.58,-23.94l131.1 0c0.29,-5.1 0.11,-10.61 -0.6,-18.9 -1.25,-14.12 -5.28,-32.67 -19.42,-46.76z"/>
   <path class="fil0" d="M465.56 676.27c0.16,-2.69 0.93,-5.74 1.62,-8.4 6.16,-24.27 23.85,-37.7 50.74,-37.7 34.63,0 47.65,24.2 48.2,46.1l-100.56 0zm110.42 -45.44c-13.3,-13.25 -32.65,-20.93 -57.42,-20.93 -51.89,0 -81.64,30.28 -81.64,81.44 0,22.67 7.33,41.55 21.21,54.59 14.08,13.28 35.25,21.25 60.2,21.25 18.97,0 36.04,-4.78 48.77,-12.05 12.18,-6.94 22.29,-16.71 26.22,-29.78l-31.5 0c-7.69,14.07 -24.56,21.61 -45.13,21.61 -20.96,0 -36.72,-9.52 -45.21,-26.53 -3.41,-6.8 -5.92,-15.34 -6.58,-23.94l131.09 0 0 -8.77c0,-24.52 -6.74,-43.69 -20.01,-56.89z"/>
   <polygon class="fil0" points="5533.9,687.94 5412.96,628.61 5412.96,747.29 "/>
   <path class="fil0" d="M4295.02 683.92c0,-49.84 30.12,-80.62 72.83,-80.62 32.05,0 60.24,16.89 67.59,54.59l-23.38 0c-6.53,-24.5 -24.27,-33.78 -44.21,-33.78 -29.51,0 -48.77,22.08 -48.77,59.81 0,37.7 19.26,59.81 48.77,59.81 21.01,0 41.59,-12.34 45.28,-39.66l23.2 0c-4.33,40.52 -35.11,60.46 -68.48,60.46 -42.49,0 -72.83,-30.77 -72.83,-80.61z"/>
   <path class="fil0" d="M4542.89 678.28c16.9,0 28.83,-8.9 28.83,-26.66 0,-17.12 -11.93,-24.93 -30.57,-24.93l-42.9 0 0 51.59 44.64 0zm50.27 63.93c0.46,6.74 1.96,13.87 5.22,18.85l-23.84 0c-3.26,-4.76 -4.35,-11.7 -4.57,-19.72l-0.62 -16.48c-0.87,-20.8 -9.11,-27.3 -26.23,-27.3l-44.87 0 0 63.5 -23.2 0 0 -154.31 67.41 0c32.52,0 53.1,15.82 53.1,42.71 0,19.28 -9.97,32.08 -26,37.27 15.82,4.55 21.44,15.39 22.11,31.41l1.49 24.07z"/>
   <polygon class="fil0" points="4747.84,627.55 4660.94,627.55 4660.94,671.13 4739.6,671.13 4739.6,691.51 4660.94,691.51 4660.94,740.27 4747.2,740.27 4747.2,761.06 4637.74,761.06 4637.74,606.75 4747.84,606.75 "/>
   <path class="fil0" d="M4819.74 700.82l54.41 0 -3.25 -8.48c-6.29,-15.8 -16.26,-41.8 -24.1,-63.26 -7.78,21.46 -17.73,47.46 -23.81,63.26l-3.25 8.48zm77.16 60.23l-15.17 -40.07 -69.37 0 -14.93 40.07 -24.07 0 60.24 -154.31 26.66 0 61.13 154.31 -24.49 0z"/>
   <polygon class="fil0" points="5047.03,606.74 5047.03,627.55 4995.88,627.55 4995.88,761.06 4972.25,761.06 4972.25,627.55 4921.11,627.55 4921.11,606.74 "/>
   <polygon class="fil0" points="5186.98,627.55 5100.07,627.55 5100.07,671.13 5178.73,671.13 5178.73,691.51 5100.07,691.51 5100.07,740.27 5186.34,740.27 5186.34,761.06 5076.88,761.06 5076.88,606.75 5186.98,606.75 "/>
   <polygon class="fil0" points="5866.46,606.74 5866.46,627.55 5815.3,627.55 5815.3,761.06 5791.66,761.06 5791.66,627.55 5740.53,627.55 5740.53,606.74 "/>
   <path class="fil0" d="M5967.59 678.28c16.9,0 28.82,-8.9 28.82,-26.66 0,-17.12 -11.92,-24.93 -30.57,-24.93l-42.92 0 0 51.59 44.67 0zm50.27 63.93c0.46,6.74 1.93,13.87 5.21,18.85l-23.86 0c-3.23,-4.76 -4.32,-11.7 -4.55,-19.72l-0.64 -16.48c-0.84,-20.8 -9.08,-27.3 -26.2,-27.3l-44.9 0 0 63.5 -23.18 0 0 -154.31 67.4 0c32.53,0 53.11,15.82 53.11,42.71 0,19.28 -9.97,32.08 -26,37.27 15.82,4.55 21.45,15.39 22.11,31.41l1.5 24.07z"/>
   <path class="fil0" d="M6094.1 700.82l54.41 0 -3.25 -8.48c-6.29,-15.8 -16.26,-41.8 -24.09,-63.26 -7.79,21.46 -17.74,47.46 -23.81,63.26l-3.26 8.48zm77.16 60.23l-15.17 -40.07 -69.37 0 -14.95 40.07 -24.04 0 60.23 -154.31 26.66 0 61.14 154.31 -24.5 0z"/>
   <path class="fil0" d="M6330.07 606.74l22.31 0 0 154.32 -26.66 0 -47.45 -74.75c-10.2,-16.05 -21.9,-34.69 -30.15,-49.65 0.87,29.05 0.87,55.69 0.87,77.61l0 46.79 -22.54 0 0 -154.32 26.66 0 47.68 74.79c9.76,15.37 21.67,34.9 30.14,49.86 -0.86,-29.28 -0.86,-55.94 -0.86,-77.82l0 -46.83z"/>
   <path class="fil0" d="M6391.98 710.14l23.2 0c0.4,26.66 18.62,34.68 41.59,34.68 23.2,0 35.99,-8.88 35.99,-25.8 0,-13.66 -9.12,-19.92 -34.9,-25.57l-13.23 -2.82c-27.98,-5.63 -48.1,-17.55 -48.1,-45.51 0,-25.14 20.35,-41.83 54.61,-41.83 44.42,0 60.68,21.91 61.32,48.75l-22.98 0c-1.27,-18.19 -10.17,-29.05 -38.13,-29.05 -20.81,0 -31.21,8.47 -31.21,21.7 0,13.65 7.14,20.15 33.58,25.99l13.45 2.83c36,7.58 49.64,21.45 49.64,44.87 0,28.6 -22.34,46.15 -60.04,46.15 -38.8,0 -64.59,-17.12 -64.79,-54.39z"/>
   <path class="fil0" d="M6546.01 683.92c0,-49.84 30.12,-80.62 72.81,-80.62 32.08,0 60.26,16.89 67.62,54.59l-23.38 0c-6.54,-24.5 -24.28,-33.78 -44.24,-33.78 -29.49,0 -48.77,22.08 -48.77,59.81 0,37.7 19.28,59.81 48.77,59.81 21.03,0 41.61,-12.34 45.3,-39.66l23.2 0c-4.32,40.52 -35.11,60.46 -68.5,60.46 -42.46,0 -72.81,-30.77 -72.81,-80.61z"/>
   <polygon class="fil0" points="6836.79,627.55 6749.86,627.55 6749.86,671.13 6828.55,671.13 6828.55,691.51 6749.86,691.51 6749.86,740.27 6836.15,740.27 6836.15,761.06 6726.69,761.06 6726.69,606.75 6836.79,606.75 "/>
   <path class="fil0" d="M6980.86 606.74l22.31 0 0 154.32 -26.64 0 -47.47 -74.75c-10.2,-16.05 -21.9,-34.69 -30.14,-49.65 0.87,29.05 0.87,55.69 0.87,77.61l0 46.79 -22.54 0 0 -154.32 26.66 0 47.67 74.79c9.77,15.37 21.68,34.9 30.14,49.86 -0.86,-29.28 -0.86,-55.94 -0.86,-77.82l0 -46.83z"/>
   <path class="fil0" d="M7102.36 740.7c34.03,0 52.45,-20.81 52.45,-56.78 0,-35.99 -18.42,-56.78 -52.45,-56.78l-31.65 0 0 113.56 31.65 0zm76.74 -56.78c0,47.67 -28.18,77.16 -76.52,77.16l-55.07 0 0 -154.34 55.07 0c48.34,0 76.52,29.48 76.52,77.18z"/>
   <path class="fil0" d="M7226.04 732.88l28.85 0 0 29.83c0,21.67 -8.84,30.96 -25.28,32.17l-3.57 0.23 0 -14.78 3.1 -0.22c6.9,-0.73 9.76,-6.22 9.76,-15.99l0 -3.34 -12.86 0 0 -27.9z"/>
   <path class="fil0" d="M7438.05 700.82l54.41 0 -3.25 -8.48c-6.29,-15.8 -16.26,-41.8 -24.1,-63.26 -7.78,21.46 -17.73,47.46 -23.81,63.26l-3.25 8.48zm77.15 60.23l-15.16 -40.07 -69.37 0 -14.93 40.07 -24.07 0 60.24 -154.31 26.66 0 61.13 154.31 -24.5 0z"/>
   <path class="fil0" d="M7561.52 703.43l0 -96.7 23.2 0 0 96.47c0,27.73 14.53,40.32 39.23,40.32 24.7,0 39.2,-12.59 39.2,-40.32l0 -96.47 23.2 0 0 96.7c0,39.22 -23.4,60.9 -62.4,60.9 -38.8,0 -62.43,-21.68 -62.43,-60.9z"/>
   <path class="fil0" d="M7798.76 680l67.18 0 0 81.08 -17.75 0 -4.12 -20.59c-11.06,15.39 -28.19,24.05 -50.3,24.05 -44.21,0 -73.26,-32.51 -73.26,-80.62 0,-48.13 28.85,-80.62 74.59,-80.62 38.11,0 64.13,21.68 69.12,54.39l-23.84 0c-4.33,-21.01 -22.13,-33.81 -45.08,-33.81 -31.01,0 -50.72,23.2 -50.72,60.04 0,36.84 19.94,60.04 51.16,60.04 25.99,0 47.67,-18.01 48.55,-44.22l-45.53 0 0 -19.74z"/>
   <path class="fil0" d="M8038.38 606.74l32.29 0 0 154.32 -22.31 0 0 -48.31c0,-21.91 0,-49 0.88,-78.25 -3.92,11.9 -7.81,22.31 -13.02,35.76l-34.9 90.8 -19.49 0 -35.34 -90.8c-4.98,-13.23 -8.9,-23.4 -12.79,-35.1 0.87,29.02 0.87,55.91 0.87,77.59l0 48.31 -22.34 0 0 -154.32 32.1 0 31.62 82.15c5.44,14.55 11.5,31.01 15.85,43.57 4.33,-12.99 10.61,-30.98 16.03,-45.73l30.55 -79.99z"/>
   <polygon class="fil0" points="8229.25,627.55 8142.34,627.55 8142.34,671.13 8221.01,671.13 8221.01,691.51 8142.34,691.51 8142.34,740.27 8228.61,740.27 8228.61,761.06 8119.14,761.06 8119.14,606.75 8229.25,606.75 "/>
   <path class="fil0" d="M8369.19 606.74l22.31 0 0 154.32 -26.66 0 -47.44 -74.75c-10.23,-16.05 -21.93,-34.69 -30.14,-49.65 0.86,29.05 0.86,55.69 0.86,77.61l0 46.79 -22.54 0 0 -154.32 26.66 0 47.67 74.79c9.77,15.37 21.68,34.9 30.15,49.86 -0.87,-29.28 -0.87,-55.94 -0.87,-77.82l0 -46.83z"/>
   <polygon class="fil0" points="8551.19,606.74 8551.19,627.55 8500.03,627.55 8500.03,761.06 8476.4,761.06 8476.4,627.55 8425.26,627.55 8425.26,606.74 "/>
   <polygon class="fil0" points="4522.85,37 4605.24,37 4605.24,384.13 4522.85,384.13 4522.85,243.23 4383.41,243.23 4383.41,384.13 4301.01,384.13 4301.01,37 4383.41,37 4383.41,170.1 4522.85,170.1 "/>
   <path class="fil0" d="M4828.92 258.35c0,-47.79 -20.97,-70.7 -54.6,-70.7 -34.15,0 -55.12,22.91 -55.12,70.7 0,47.79 20.97,70.66 55.12,70.66 33.63,0 54.6,-22.87 54.6,-70.66zm-186.74 0c0,-79.96 51.69,-131.65 132.14,-131.65 79.94,0 131.62,51.69 131.62,131.65 0,79.96 -51.68,131.64 -131.62,131.64 -80.45,0 -132.14,-51.68 -132.14,-131.64z"/>
   <path class="fil0" d="M5251.03 132.56l81.44 0 -81.92 251.57 -79.95 0 -27.78 -94.59c-6.85,-22.42 -13.18,-45.33 -19.01,-67.78 -5.4,22.45 -11.73,45.36 -18.03,67.78l-27.83 94.59 -79.93 0 -82.41 -251.57 81.91 0 23.4 80.94c8.29,28.25 16.1,56.55 23.38,84.83 6.86,-28.28 14.16,-56.58 21.97,-85.31l22.91 -80.46 70.19 0 22.93 80.46c7.81,28.73 15.14,57.03 21.92,85.31 7.33,-28.28 15.12,-56.58 23.41,-84.83l23.4 -80.94z"/>
   <path class="fil0" d="M5786.41 132.56l81.42 0 -81.92 251.57 -79.96 0 -27.79 -94.59c-6.81,-22.42 -13.16,-45.33 -19.02,-67.78 -5.35,22.45 -11.7,45.36 -18.03,67.78l-27.79 94.59 -79.96 0 -82.38 -251.57 81.9 0 23.43 80.94c8.26,28.25 16.07,56.55 23.38,84.83 6.81,-28.28 14.14,-56.58 21.92,-85.31l22.93 -80.46 70.21 0 22.9 80.46c7.81,28.73 15.12,57.03 21.95,85.31 7.31,-28.28 15.1,-56.58 23.41,-84.83l23.4 -80.94z"/>
   <path class="fil0" d="M6061.23 232.51c-5.37,-31.21 -25.34,-49.75 -56.56,-49.75 -27.77,0 -49.22,15.12 -55.07,49.75l111.63 0zm-185.26 25.84c0,-79.48 51.18,-131.64 129.68,-131.64 78.51,0 129.68,54.1 129.68,138.95l0 15.12 -186.23 0c5.35,36.54 27.8,53.13 57.53,53.13 24.86,0 41.91,-10.24 50.7,-28.3l72.16 0c-13.67,52.67 -62.41,84.38 -122.86,84.38 -77.99,0 -130.66,-51.7 -130.66,-131.64z"/>
   <path class="fil0" d="M6670.04 220.81l0 163.32 -76.03 0 0 -150.17c0,-27.29 -10.75,-42.41 -37.55,-42.41 -22.92,0 -43.39,15.12 -43.39,53.62l0 138.96 -76.07 0 0 -150.17c0,-27.29 -10.72,-42.41 -37.54,-42.41 -22.9,0 -43.87,15.12 -43.87,53.62l0 138.96 -76.04 0 0 -251.57 74.1 0 0 35.58c16.07,-23.87 38.5,-41.43 71.65,-41.43 36.56,0 64.36,16.1 78,45.35 17.08,-25.36 43.89,-45.35 78.52,-45.35 54.1,0 88.22,33.65 88.22,94.1z"/>
   <path class="fil0" d="M6892.22 258.35c0,-47.79 -20.94,-70.7 -54.59,-70.7 -34.13,0 -55.1,22.91 -55.1,70.7 0,47.79 20.97,70.66 55.1,70.66 33.65,0 54.59,-22.87 54.59,-70.66zm-186.73 0c0,-79.96 51.68,-131.65 132.14,-131.65 79.94,0 131.64,51.69 131.64,131.65 0,79.96 -51.7,131.64 -131.64,131.64 -80.46,0 -132.14,-51.68 -132.14,-131.64z"/>
   <path class="fil0" d="M7166.65 132.56l78 0 -89.71 251.57 -90.65 0 -89.73 -251.57 81.92 0 13.16 38.02c13.63,48.29 28.27,99.47 41.93,148.7 13.64,-49.23 28.27,-100.41 41.91,-148.7l13.17 -38.02z"/>
   <path class="fil0" d="M7434.71 232.51c-5.35,-31.21 -25.34,-49.75 -56.55,-49.75 -27.8,0 -49.25,15.12 -55.1,49.75l111.65 0zm-185.26 25.84c0,-79.48 51.21,-131.64 129.69,-131.64 78.48,0 129.68,54.1 129.68,138.95l0 15.12 -186.23 0c5.37,36.54 27.77,53.13 57.52,53.13 24.84,0 41.92,-10.24 50.71,-28.3l72.15 0c-13.66,52.67 -62.4,84.38 -122.86,84.38 -78.01,0 -130.66,-51.7 -130.66,-131.64z"/>
   <path class="fil0" d="M7806.11 132.56l78.48 0 -91.18 261.32c-21.93,63.39 -50.7,86.31 -125.29,86.31 -14.62,0 -21.92,-0.5 -29.73,-1l0 -58.51 24.38 0c28.27,0 38.05,-16.07 38.05,-35.11 0,-14.12 -5.86,-32.15 -11.71,-48.74l-72.17 -204.27 81.91 0 11.21 35.58c14.61,49.25 29.25,100.93 42.91,158.44 13.64,-58.01 27.8,-109.19 41.91,-157.96l11.23 -36.06z"/>
   <path class="fil0" d="M8076.59 258.35c0,-47.79 -20.95,-70.7 -54.6,-70.7 -34.1,0 -55.09,22.91 -55.09,70.7 0,47.79 20.99,70.66 55.09,70.66 33.65,0 54.6,-22.87 54.6,-70.66zm-186.72 0c0,-79.96 51.69,-131.65 132.12,-131.65 79.96,0 131.65,51.69 131.65,131.65 0,79.96 -51.69,131.64 -131.65,131.64 -80.43,0 -132.12,-51.68 -132.12,-131.64z"/>
   <path class="fil0" d="M8355.38 132.56l76.07 0 0 251.57 -74.1 0 0 -35.6c-16.58,23.4 -41.94,41.46 -78.98,41.46 -49.73,0 -87.27,-30.24 -87.27,-92.64l0 -164.79 76.06 0 0 149.67c0,27.78 12.19,42.89 40.46,42.89 23.41,0 47.76,-15.11 47.76,-52.16l0 -140.4z"/>
   <polygon class="fil0" points="8477.67,300.26 8563.48,300.26 8563.48,384.13 8477.67,384.13 "/>
   <path class="fil1" d="M694.6 87.63l-0.75 -52.19 -304.83 0 -0.53 52.19c46.49,-2.01 74.2,1.86 76.34,31.48l0.66 68.28 -237.89 0 -0.57 -62.43c5.26,-33.65 32.65,-37.02 78.07,-37.33l0 -51.84 -305.1 0 0.59 51.84c44.39,0 72.35,1.45 76,36.74l0.66 207.39c-3.3,26.91 -21.22,33.26 -76.66,34.3l-0.43 53.05 304.94 0 0 -53.79c-50.27,0.09 -75.34,-1.8 -78.07,-34.13l0 -66.39 237.8 -0.73 0 67.69c-1.95,32.1 -28.27,33.65 -75.33,33.9l-0.48 53.05 304.83 0.4 0 -53.45c-48.61,0.4 -73.88,-3.13 -76.5,-33.9l0 -211.26c2.62,-29.59 34.72,-34.03 77.25,-32.87z"/>
   <path class="fil1" d="M1023.89 358.91c-110.65,2.14 -137.88,-59.06 -137.88,-131.53 0,-72.56 22.38,-132.52 137.88,-132.52 111.88,0 137.87,59.96 137.87,132.52 0,72.47 -25.11,129.71 -137.87,131.53zm0 -338.03c-217.68,-1.61 -313.73,91.98 -313.73,204.93 0,112.86 93.75,206.07 313.73,205.18 226.71,-1 313.73,-92.32 313.73,-205.18 0,-112.95 -91.3,-203.35 -313.73,-204.93z"/>
   <path class="fil1" d="M1780.82 87.94c42.85,-1.48 74.95,4.35 77.32,36.45l-0.41 192.72 -211.14 -273.41c-4.71,-5.44 -11.3,-7.83 -19.76,-7.92l-272.09 0 0 52.16c52.13,0 72.85,6.51 74.26,36.45l0 207.13c0,27.16 -21.71,35.61 -74.26,35.04l0 52.98 242.81 0 0 -53.3c-47.47,-0.18 -76,-7.83 -77.16,-34.72l0.34 -196.18 204.82 268.97c9.72,11.27 22.37,15.23 35.85,15.23l187.8 0 0 -295.15c0.1,-30.94 33.66,-36.77 76.76,-36.45l0.49 -52.16 -245.63 0 0 52.16z"/>
   <path class="fil1" d="M2426.65 344.94l-151.45 -0.73 0.5 -236.28 136.06 -0.5c57.01,1.57 95.03,34.81 96.26,105.22l0.06 25.01c0.82,65.97 -32.1,104.82 -81.43,107.28zm253.92 -137.54c-5.92,-123.4 -129.79,-171.94 -235.51,-171.62l-389.81 0 0 51.84c50.34,-0.84 71.74,12 71.4,36.61l0 207.29c0,24.28 -28.55,34.13 -77,34.54l0.5 53.48 394.03 0c135.4,-7.9 234.43,-58.17 236.98,-181.57l-0.59 -30.57z"/>
   <path class="fil1" d="M2898.08 232.8l71.99 -114.99 77.57 115.24 -149.56 -0.25zm147.83 132.85l0 54.04 330.09 0 -0.65 -54.04c-36.69,1.16 -65.08,-1.46 -86.61,-33.82l-182.55 -278.28c-8.38,-10.92 -16.94,-18.57 -34.13,-18.09l-290.71 -0.67 0 52.84c51.25,0.99 93.46,6.56 81.67,36.84l-127 207.36c-18.26,26.35 -37.66,33.82 -83.17,34.41l-0.73 52.89 244.14 0.56 0 -54.04c-43.33,0.43 -74.52,-5.67 -60.61,-33.82l19.49 -29.93 238.55 -0.57 18.76 30.5c8.88,18.27 -11.02,36.78 -66.54,33.82z"/>
  </g>
 </g>
</svg>
