<?xml version="1.0" encoding="UTF-8"?>
<!DOCTYPE svg PUBLIC "-//W3C//DTD SVG 1.1//EN" "http://www.w3.org/Graphics/SVG/1.1/DTD/svg11.dtd">
<!-- Creator: CorelDRAW 2019 (64-Bit) -->
<svg xmlns="http://www.w3.org/2000/svg" xml:space="preserve" width="210mm" height="297mm" version="1.1" style="shape-rendering:geometricPrecision; text-rendering:geometricPrecision; image-rendering:optimizeQuality; fill-rule:evenodd; clip-rule:evenodd"
viewBox="0 0 21000 29700"
 xmlns:xlink="http://www.w3.org/1999/xlink">
 <defs>
  <style type="text/css">
   <![CDATA[
    .fil0 {fill:#E41D2D}
   ]]>
  </style>
 </defs>
 <g id="Layer_x0020_1">
  <metadata id="CorelCorpID_0Corel-Layer"/>
  <path class="fil0" d="M7248.41 17255.22l610.09 568.19 3989.35 0 -1515.25 -940.4 -3084.19 372.21zm-675.07 -631.32l546.52 514.81 3008.86 -372.65c-92.75,-66.14 -67.39,-162.55 54.06,-174.15l1575.73 -230.53c671.98,-89.06 845.12,-317.55 1350.58,-929.92 27.49,-39.21 3.69,-46.04 -83.93,-25.65l-3099.92 588.74 -3351.9 629.35zm-607.68 -557.43l482.1 444.45 2503.65 -478.73c-105.88,-71.92 -74.9,-160.98 69.51,-184.05l3616.42 -698.03c834.64,-143.84 884.77,-207.41 1481.58,-1107.76 50.08,-77.18 37.36,-98.13 -70.4,-63.73l-3276.6 841.46 -3737.71 964.48 -1068.55 281.91zm5535.87 -2595.27l-4139.98 1357.51c-374.66,113.14 -728.17,234.91 -1035.28,338.7 -334.72,114.38 -572.44,165.92 -678.36,264.89 -97.12,90.06 -95.28,239.85 0,338.42 67.67,62.57 130.96,121.04 198.51,184.05l1659.97 -430.84 430.57 -113.14c-77.46,-61.61 -76.18,-136.62 10.76,-165.68l2141.63 -575.09 2187.5 -590.02 1496.87 -408.61c362.17,-80.55 621.85,-265.9 810.16,-522.16 187.47,-270.99 356.92,-545.67 471.18,-834.68 18.54,-34.96 13.16,-51.53 -13.45,-54.5 -1029.45,419.13 -2362.21,808.19 -3540.08,1211.15zm4325.2 -3155.28c-2309.15,1128.75 -5142.14,2257.34 -7999.22,3387.62l-2221.06 908.41c-920.89,348.32 -959.42,1063.33 -413.18,1610.96 143.88,148.54 281.9,274.57 395.77,395.73 678.03,722.67 955.56,834.69 1063.85,1214.96l933.49 0 -2032.9 -1894.56c-505.3,-553.62 75.61,-778.29 583.76,-933.33l2637.21 -929.08 3709.14 -1303.34 1829.14 -658.09c561.8,-187.59 1040.65,-342.91 1359.92,-1255.57l169.65 -444.3 24.04 -84.8c0,0 -39.61,-15.29 -39.61,-14.61zm-1031.18 8027.67l-239.28 382.17 497.83 0 -258.55 -382.17zm-628.63 -278.89l0 175.99c170.57,4.09 311.04,22.8 270.99,124.14l-421.82 689.39c-62.57,89.78 -126.14,113.7 -278.21,115.39l-1.97 177.15 814.13 1.97 0 -180.81c-144.56,0.56 -247.63,-19.38 -202.36,-113.7l64.58 -98.25 795.99 -1.97 62.45 100.22c29.58,62.17 -37.64,124.9 -222.14,113.7l0 180.81 1100.69 0 -3.25 -180.81c-120.76,4.38 -215.92,-5.38 -288.29,-113.7l-607.39 -927.11c-27.9,-35.24 -56.8,-61.17 -113.26,-60.16l-970.14 -2.25zm-1686.18 243.5l-1.57 788.92 505.34 2.29c164.11,-9.07 273.68,-138.62 271.83,-356.96l-0.68 -83.52c-4.82,-235.63 -130.96,-345.92 -321.56,-351.7l-453.36 0.97zm-734.67 -240.13l0 172.62c167.2,-1.85 238.56,41.9 238,122.73l0 689.24c0,82.55 -95.44,115.26 -257.14,115.82l1.28 178.28 1315.22 0c449.38,-25.08 780.82,-193.97 788.6,-603.74l-1.68 -102.35c-18.83,-410.9 -432.13,-573.72 -784.68,-572.6l-1299.6 0zm-2335.2 0l0 173.58c174.71,0 243.54,22.68 248.91,122.61l0 688.4c0,93.47 -73.2,119.64 -248.91,118.11l0 175.99 809.32 0 0 -177.15c-158.86,0 -254.18,-25.05 -256.87,-116.95l1.45 -653.12 682.01 897.78c32.83,37.12 74.77,49.44 120.04,49.44l625.54 0 0 -982.5c0,-104.19 111.74,-124.85 256.58,-122.61l0.69 -173.58 -818.35 0 0 173.58c142.44,-4.81 250.32,15.17 256.98,122.61l-1.85 642.8 -703.56 -912.5c-15.13,-17.26 -36.8,-25.49 -64.86,-26.49l-907.12 0zm-1102.38 197.82c372.37,0 459.42,199.07 459.42,441.61 0,240.81 -83.24,431.41 -459.42,438.63 -370.25,5.94 -460.87,-197.82 -460.87,-438.63 0,-242.54 75.33,-441.61 460.87,-441.61zm0 -246.38c740.04,4.69 1045.03,306.83 1045.03,683.17 0,376.34 -289.7,681.01 -1045.03,682.45 -733.71,3.37 -1046.76,-306.11 -1046.76,-682.45 0,-376.34 319.56,-690.4 1046.76,-683.17zm-3413.95 48.56l1016.18 0 0 171.34c-150.11,2.24 -241.13,14.28 -258.55,125.42l0.44 209.86 793.02 0 -2.12 -228.53c-6.23,-97.97 -97.41,-112.29 -254.58,-106.75l2.97 -172.46 1016.57 0 1.85 172.46c-141.43,-2.57 -249.04,13.44 -256.98,111.13l0 703.68c8.95,103.67 92.19,115.39 255.13,113.7l0 178.84 -1016.57 -0.72 2.13 -178.12c155.6,-1.4 243.66,-5.38 250.76,-113.7l0 -224.83 -794.47 1.68 0 221.3c10.92,109.61 95,114.15 261.36,114.15l0 180.24 -1016.13 0 1.24 -177.15c185.34,-3.65 246.23,-25.05 254.74,-115.39l-1.01 -689.96c-12.88,-117.35 -106.88,-124.85 -253.73,-124.85l-2.25 -171.34z"/>
 </g>
</svg>
