<?xml version="1.0" encoding="UTF-8"?>
<!DOCTYPE svg PUBLIC "-//W3C//DTD SVG 1.1//EN" "http://www.w3.org/Graphics/SVG/1.1/DTD/svg11.dtd">
<!-- Creator: CorelDRAW 2019 (64-Bit) -->
<svg xmlns="http://www.w3.org/2000/svg" xml:space="preserve" width="68.6501mm" height="8.9668mm" version="1.1" style="shape-rendering:geometricPrecision; text-rendering:geometricPrecision; image-rendering:optimizeQuality; fill-rule:evenodd; clip-rule:evenodd"
viewBox="0 0 6865.02 896.68"
 xmlns:xlink="http://www.w3.org/1999/xlink">
 <defs>
  <style type="text/css">
   <![CDATA[
    .fil0 {fill:#FEFEFE;fill-rule:nonzero}
   ]]>
  </style>
 </defs>
 <g id="Layer_x0020_1">
  <metadata id="CorelCorpID_0Corel-Layer"/>
  <path class="fil0" d="M265.39 132.8l-265.39 0 0 -119.87 662.31 0 0 119.87 -265.4 0 0 748.6 -131.52 0 0 -748.6zm776.22 748.6c-7.05,-46.23 -11.35,-75.61 -12.91,-88.14 -20.36,32.9 -47.17,57.97 -80.45,75.21 -33.27,17.24 -71.43,25.86 -114.49,25.86 -42.28,0 -79.85,-7.45 -112.73,-22.33 -32.89,-14.89 -58.33,-36.63 -76.34,-65.23 -18,-28.59 -27,-62.48 -27,-101.65 0,-39.17 10.57,-73.45 31.7,-102.83 21.14,-29.38 51.87,-52.1 92.19,-68.16 40.31,-16.06 88.27,-24.1 143.85,-24.1 46.97,0 93.16,5.88 138.57,17.63l0 -30.55c0,-43.09 -13.31,-76.78 -39.93,-101.07 -26.62,-24.29 -63.02,-36.43 -109.21,-36.43 -33.66,0 -64.2,4.9 -91.6,14.69 -27.4,9.79 -54.41,24.09 -81.02,42.89l-49.32 -94.01c68.89,-47.01 145.61,-70.51 230.16,-70.51 53.24,0 99.43,9.59 138.57,28.79 39.14,19.19 69.28,47.01 90.42,83.44 21.14,36.43 31.71,80.11 31.71,131.03l0 209.19c0,58.76 4.3,117.52 12.91,176.28l-115.08 0zm-180.84 -86.97c32.1,0 60.28,-6.07 84.55,-18.21 24.27,-12.15 43.45,-29.77 57.54,-52.89 14.09,-23.11 21.14,-50.33 21.14,-81.67l0 -27.03c-36.8,-10.97 -78.29,-16.45 -124.48,-16.45 -53.23,0 -92.96,9.4 -119.19,28.2 -26.23,18.8 -39.34,44.27 -39.34,76.39 0,27.42 10.57,49.55 31.7,66.4 21.14,16.84 50.5,25.26 88.08,25.26zm793.83 -542.94c43.84,0 82.4,10.19 115.67,30.56 33.27,20.37 59.11,50.53 77.51,90.49 18.39,39.95 27.59,88.53 27.59,145.72l0 363.14 -125.65 0 0 -347.86c0,-55.63 -11.94,-96.95 -35.82,-123.98 -23.87,-27.03 -58.51,-40.55 -103.92,-40.55 -29.75,0 -56.56,6.66 -80.44,19.98 -23.88,13.32 -42.86,33.88 -56.96,61.7 -14.09,27.81 -21.13,63.26 -21.13,106.35l0 324.36 -125.66 0 0 -613.46 120.96 0 3.52 94.02c45.41,-73.65 113.52,-110.47 204.33,-110.47zm590.68 644.01c-57.93,0 -107.45,-9.01 -148.55,-27.03 -41.1,-18.02 -78.48,-43.87 -112.15,-77.56l72.81 -83.44c28.18,28.2 57.15,48.77 86.9,61.7 29.75,12.92 63.02,19.39 99.81,19.39 36.02,0 64.4,-6.47 85.14,-19.39 20.75,-12.93 31.12,-32.32 31.12,-58.18 0,-18.8 -6.26,-34.08 -18.79,-45.83 -12.52,-11.75 -28.18,-20.57 -46.97,-26.44 -18.79,-5.88 -44.23,-11.95 -76.33,-18.22 -44.62,-9.4 -80.83,-19.39 -108.62,-29.96 -27.79,-10.58 -51.67,-27.62 -71.64,-51.12 -19.96,-23.51 -29.94,-56.02 -29.94,-97.55 0,-35.25 9.98,-66.98 29.94,-95.19 19.97,-28.2 48.15,-50.53 84.55,-66.98 36.41,-16.46 78.49,-24.68 126.24,-24.68 95.51,0 173.8,29.38 234.87,88.14l-66.94 84.61c-46.19,-44.66 -100.99,-66.99 -164.41,-66.99 -37.57,0 -66.34,6.86 -86.31,20.57 -19.96,13.71 -29.94,31.53 -29.94,53.47 0,17.24 5.87,30.95 17.61,41.13 11.75,10.19 26.42,18.22 44.04,24.1 17.61,5.87 42.47,12.34 74.57,19.39 45.41,10.18 82.59,20.76 111.56,31.73 28.96,10.97 53.62,28.59 73.98,52.88 20.36,24.29 30.53,57.19 30.53,98.72 0,39.17 -10.76,73.45 -32.29,102.83 -21.53,29.38 -50.89,51.71 -88.07,66.99 -37.19,15.27 -78.1,22.91 -122.72,22.91zm443.89 -742.72c-24.27,0 -44.04,-7.06 -59.3,-21.16 -15.27,-14.1 -22.9,-32.51 -22.9,-55.23 0,-22.72 7.63,-41.14 22.9,-55.24 15.26,-14.1 35.03,-21.15 59.3,-21.15 23.48,0 43.06,7.24 58.71,21.74 15.66,14.49 23.49,32.71 23.49,54.65 0,21.93 -7.83,40.15 -23.49,54.64 -15.65,14.5 -35.23,21.75 -58.71,21.75zm-63.42 115.16l125.66 0 0 613.46 -125.66 0 0 -613.46zm1275.3 -255.01l0 868.47 -132.69 0 0 -387.82 -398.09 0 0 387.82 -131.53 0 0 -868.47 131.53 0 0 359.61 398.09 0 0 -359.61 132.69 0zm488.52 883.75c-57.15,0 -110,-12.93 -158.53,-38.79 -48.54,-25.85 -87.49,-63.26 -116.85,-112.23 -29.36,-48.96 -44.03,-105.96 -44.03,-170.99 0,-65.81 14.48,-123.2 43.44,-172.17 28.97,-48.96 67.92,-86.37 116.85,-112.23 48.93,-25.85 102.36,-38.78 160.29,-38.78 57.15,0 110,12.93 158.53,38.78 48.54,25.86 87.29,63.27 116.26,112.23 28.97,48.97 43.45,106.36 43.45,172.17 0,65.03 -14.48,121.83 -43.45,170.41 -28.97,48.57 -67.72,85.98 -116.26,112.23 -48.53,26.24 -101.77,39.37 -159.7,39.37zm0 -111.65c33.66,0 64.97,-8.62 93.94,-25.85 28.97,-17.24 52.26,-41.72 69.87,-73.45 17.62,-31.73 26.43,-69.14 26.43,-112.23 0,-42.31 -8.42,-79.53 -25.25,-111.65 -16.83,-32.12 -39.73,-56.6 -68.7,-73.45 -28.97,-16.84 -60.67,-25.27 -95.12,-25.27 -34.44,0 -66.15,8.62 -95.12,25.86 -28.96,17.24 -52.25,41.72 -69.87,73.45 -17.61,31.73 -26.42,69.14 -26.42,112.23 0,42.31 8.61,79.52 25.83,111.65 17.23,32.12 40.32,56.6 69.29,73.45 28.97,16.84 60.67,25.26 95.12,25.26zm799.7 -533.54c43.84,0 82.4,10.19 115.67,30.56 33.28,20.37 59.11,50.53 77.51,90.49 18.39,39.95 27.59,88.53 27.59,145.72l0 363.14 -125.65 0 0 -347.86c0,-55.63 -11.94,-96.95 -35.81,-123.98 -23.88,-27.03 -58.52,-40.55 -103.93,-40.55 -29.75,0 -56.56,6.66 -80.44,19.98 -23.88,13.32 -42.86,33.88 -56.96,61.7 -14.09,27.81 -21.13,63.26 -21.13,106.35l0 324.36 -125.65 0 0 -613.46 120.95 0 3.52 94.02c45.41,-73.65 113.52,-110.47 204.33,-110.47zm991.12 -238.56l0 868.47 -119.78 0 -3.52 -104.6c-23.49,38.4 -53.83,67.97 -91.01,88.73 -37.19,20.76 -80.44,31.15 -129.76,31.15 -58.72,0 -110,-14.11 -153.84,-42.31 -43.84,-28.21 -77.31,-66.6 -100.4,-115.17 -23.1,-48.57 -34.64,-103.03 -34.64,-163.35 0,-60.33 12.33,-115.17 36.99,-164.53 24.66,-49.36 59.1,-88.34 103.34,-116.93 44.23,-28.6 94.53,-42.9 150.9,-42.9 48.53,0 91,9.79 127.41,29.38 36.4,19.59 65.96,47.4 88.66,83.44l0 -351.38 125.65 0zm-318.24 772.1c33.66,0 64.39,-7.44 92.19,-22.33 27.79,-14.88 50.69,-36.23 68.69,-64.05 18.01,-27.81 28.58,-60.52 31.71,-98.12l0 -52.89c-3.13,-37.61 -13.11,-70.31 -29.95,-98.13 -16.83,-27.81 -38.75,-48.97 -65.76,-63.46 -27.01,-14.49 -57.34,-21.74 -91.01,-21.74 -36.01,0 -68.5,8.62 -97.46,25.85 -28.97,17.24 -51.87,41.92 -68.7,74.04 -16.83,32.13 -25.25,68.95 -25.25,110.47 0,42.31 8.02,79.33 24.07,111.06 16.05,31.73 38.17,56.21 66.35,73.45 28.19,17.23 59.89,25.85 95.12,25.85zm887.78 96.37c-7.04,-46.23 -11.35,-75.61 -12.92,-88.14 -20.35,32.9 -47.16,57.97 -80.44,75.21 -33.27,17.24 -71.43,25.86 -114.49,25.86 -42.28,0 -79.86,-7.45 -112.74,-22.33 -32.88,-14.89 -58.32,-36.63 -76.33,-65.23 -18,-28.59 -27.01,-62.48 -27.01,-101.65 0,-39.17 10.57,-73.45 31.71,-102.83 21.14,-29.38 51.87,-52.1 92.18,-68.16 40.32,-16.06 88.28,-24.1 143.86,-24.1 46.97,0 93.16,5.88 138.57,17.63l0 -30.55c0,-43.09 -13.31,-76.78 -39.93,-101.07 -26.62,-24.29 -63.02,-36.43 -109.21,-36.43 -33.67,0 -64.2,4.9 -91.6,14.69 -27.4,9.79 -54.41,24.09 -81.02,42.89l-49.33 -94.01c68.9,-47.01 145.62,-70.51 230.17,-70.51 53.24,0 99.42,9.59 138.57,28.79 39.14,19.19 69.28,47.01 90.42,83.44 21.14,36.43 31.71,80.11 31.71,131.03l0 209.19c0,58.76 4.3,117.52 12.91,176.28l-115.08 0zm-180.84 -86.97c32.1,0 60.28,-6.07 84.55,-18.21 24.27,-12.15 43.45,-29.77 57.54,-52.89 14.09,-23.11 21.14,-50.33 21.14,-81.67l0 -27.03c-36.8,-10.97 -78.29,-16.45 -124.48,-16.45 -53.24,0 -92.97,9.4 -119.19,28.2 -26.23,18.8 -39.34,44.27 -39.34,76.39 0,27.42 10.57,49.55 31.7,66.4 21.14,16.84 50.5,25.26 88.08,25.26z"/>
 </g>
</svg>
